<?xml version="1.0" standalone="no"?>
<!DOCTYPE svg PUBLIC "-//W3C//DTD SVG 20010904//EN"
 "http://www.w3.org/TR/2001/REC-SVG-20010904/DTD/svg10.dtd">
<svg version="1.0" xmlns="http://www.w3.org/2000/svg"
 width="1024.000000pt" height="1024.000000pt" viewBox="0 0 1024.000000 1024.000000"
 preserveAspectRatio="xMidYMid meet">

<g transform="translate(0.000000,1024.000000) scale(0.100000,-0.100000)"
fill="#000000" stroke="none">
<path d="M7748 9138 c-330 -157 -465 -225 -461 -235 3 -7 9 -13 13 -13 6 0
911 423 931 436 9 5 0 35 -10 33 -3 0 -216 -100 -473 -221z"/>
<path d="M7776 8945 c-286 -135 -522 -247 -524 -250 -3 -3 -1 -10 6 -17 10
-10 230 90 989 450 50 23 70 38 66 48 -3 8 -8 14 -12 14 -3 0 -240 -111 -525
-245z"/>
<path d="M7790 8759 c-316 -149 -579 -275 -585 -280 -5 -6 -5 -13 1 -19 13
-13 1186 538 1181 553 -2 6 -7 12 -13 14 -5 1 -268 -119 -584 -268z"/>
<path d="M6616 8857 c-41 -69 -34 -161 17 -215 26 -28 69 -52 106 -59 24 -4
22 -1 -17 32 -72 62 -106 159 -83 240 15 54 7 54 -23 2z"/>
<path d="M7775 8554 c-368 -173 -673 -319 -677 -322 -4 -4 -4 -13 1 -20 5 -9
184 71 657 294 357 168 663 312 681 320 22 10 31 19 27 29 -4 8 -9 15 -13 15
-3 0 -307 -142 -676 -316z"/>
<path d="M6717 8830 c-31 -33 -28 -63 3 -35 22 20 25 16 56 -72 10 -29 24 -53
31 -53 7 0 13 4 13 9 0 17 -63 181 -69 181 -3 -1 -19 -14 -34 -30z"/>
<path d="M6265 8453 c-24 -6 -1465 -681 -1548 -726 -101 -53 -154 -148 -144
-257 5 -61 13 -78 545 -1195 57 -121 119 -251 137 -290 18 -38 55 -117 83
-175 113 -236 367 -770 397 -835 163 -350 222 -461 265 -497 57 -49 126 -72
200 -65 47 4 120 34 406 167 192 89 504 234 694 323 190 88 362 168 382 178
l38 19 -35 33 c-18 17 -60 71 -92 118 -32 47 -68 99 -81 115 -12 16 -52 70
-89 119 -36 50 -77 100 -90 112 -13 12 -23 25 -23 29 0 7 -198 202 -222 219
-35 25 -54 36 -70 41 -10 4 -18 10 -18 15 0 5 -8 9 -18 9 -10 0 -23 5 -28 10
-8 8 -26 7 -60 0 -27 -7 -60 -13 -74 -15 -14 -2 -25 -5 -25 -6 0 -2 -30 -8
-75 -13 -19 -3 -46 -8 -60 -11 -14 -4 -37 -7 -52 -8 -15 -1 -29 -5 -32 -8 -4
-3 75 -176 174 -384 99 -209 179 -384 177 -389 -7 -18 -697 -336 -728 -336
-38 0 -89 22 -110 46 -9 11 -118 233 -242 494 -124 261 -401 845 -616 1298
-215 452 -391 834 -391 848 0 33 23 85 47 106 18 17 696 338 712 338 4 0 51
-91 105 -202 53 -112 100 -202 104 -201 4 1 16 5 27 8 11 4 5 -3 -14 -15 -33
-21 -35 -21 -48 -4 -7 10 -13 24 -13 31 0 7 -5 13 -10 13 -12 0 -70 -28 -70
-34 0 -11 60 -136 65 -136 3 0 20 7 36 16 17 8 32 14 34 12 6 -7 65 -132 62
-133 -1 -2 -17 -10 -34 -19 -18 -9 -33 -19 -33 -22 0 -4 60 -126 65 -132 2 -2
18 3 37 11 l35 15 31 -64 c18 -36 32 -66 32 -68 0 -2 -14 -9 -31 -17 -33 -13
-32 -14 -64 34 -8 13 -36 3 -180 -65 -93 -44 -172 -82 -174 -84 -3 -2 3 -20
12 -39 l16 -34 93 43 c51 24 112 53 135 65 54 27 58 27 73 -9 7 -16 19 -30 26
-30 8 0 46 16 85 36 39 19 72 34 73 32 42 -66 48 -55 -59 -106 -38 -18 -71
-35 -73 -37 -6 -5 62 -135 71 -135 4 0 21 7 38 15 28 15 29 16 14 45 -19 38
-20 37 13 53 58 30 68 30 82 -4 11 -26 11 -32 -1 -40 -11 -7 -5 -26 34 -104
26 -52 47 -100 47 -105 0 -6 -61 -39 -136 -75 -115 -55 -135 -67 -129 -82 4
-10 10 -26 12 -35 3 -10 9 -18 13 -18 4 0 74 32 155 70 81 39 150 70 154 70 3
0 19 -31 35 -68 37 -84 39 -86 66 -72 12 6 29 13 38 15 9 2 49 16 87 30 39 15
88 33 110 40 22 7 61 22 88 34 26 11 47 18 47 16 0 -2 29 10 65 26 36 16 70
27 75 24 5 -3 11 -1 15 5 4 6 9 9 13 6 4 -2 32 -7 63 -10 31 -4 67 -9 80 -12
13 -2 40 -7 59 -10 19 -3 85 -23 145 -44 92 -33 137 -51 239 -98 15 -8 -5 37
-156 351 -179 372 -618 1295 -726 1527 -88 189 -138 251 -227 283 -48 16 -117
21 -160 10z m75 -698 c0 -5 -5 -3 -10 5 -5 8 -10 20 -10 25 0 6 5 3 10 -5 5
-8 10 -19 10 -25z m-110 -5 c-8 -5 -19 -10 -25 -10 -5 0 -3 5 5 10 8 5 20 10
25 10 6 0 3 -5 -5 -10z m-45 -20 c-3 -5 -12 -10 -18 -10 -7 0 -6 4 3 10 19 12
23 12 15 0z m244 -165 c0 -5 -18 24 -39 65 -21 41 -39 80 -39 85 0 6 18 -24
39 -65 21 -41 39 -79 39 -85z m-379 100 c-36 -19 -69 -34 -75 -34 -5 0 19 15
55 34 36 19 70 34 75 34 6 0 -19 -15 -55 -34z m150 -45 c-30 -16 -59 -29 -65
-29 -5 0 15 13 45 29 30 16 60 29 65 29 6 0 -15 -13 -45 -29z m-261 -4 c-2 -2
-15 -9 -29 -15 -24 -11 -24 -11 -6 3 16 13 49 24 35 12z m114 -63 c-39 -19
-39 -22 -13 -73 11 -22 20 -43 20 -47 -1 -4 -14 17 -30 47 l-28 55 31 17 c18
9 37 17 42 17 6 0 -5 -8 -22 -16z m466 -178 c0 -5 -15 19 -34 55 -19 36 -34
70 -34 75 0 6 15 -19 34 -55 19 -36 34 -69 34 -75z m-119 30 c0 -6 -76 -45
-87 -45 -4 1 12 12 37 25 50 27 50 27 50 20z m-121 -59 c-2 -2 -37 -20 -76
-40 l-72 -36 -16 31 c-9 17 -14 33 -12 35 2 3 10 -9 17 -25 l12 -30 67 34 c57
29 94 44 80 31z m221 -16 c-8 -5 -19 -10 -25 -10 -5 0 -3 5 5 10 8 5 20 10 25
10 6 0 3 -5 -5 -10z m-150 -70 c-19 -11 -39 -19 -45 -19 -5 0 6 8 25 19 19 11
40 19 45 19 6 0 -6 -8 -25 -19z m269 -95 c0 -5 -13 15 -29 45 -16 30 -29 60
-29 65 0 6 13 -15 29 -45 16 -30 29 -59 29 -65z m-679 15 c23 -46 34 -58 47
-53 15 5 14 3 -2 -10 -11 -9 -23 -17 -27 -17 -9 0 -68 114 -68 130 0 27 23 4
50 -50z m310 -105 c-25 -13 -49 -24 -55 -24 -5 0 10 11 35 24 25 13 50 24 55
24 6 0 -10 -11 -35 -24z m433 -41 c16 -31 26 -58 24 -60 -2 -2 -14 19 -27 47
-13 27 -31 54 -40 59 -13 8 -13 9 0 10 9 0 27 -24 43 -56z m-133 6 c-41 -21
-79 -39 -85 -39 -5 0 24 18 65 39 41 21 80 39 85 39 6 0 -24 -18 -65 -39z
m-180 -85 c-36 -19 -69 -34 -75 -34 -5 0 19 15 55 34 36 19 70 34 75 34 6 0
-19 -15 -55 -34z m-110 -49 c0 -2 -7 -7 -16 -10 -8 -3 -12 -2 -9 4 6 10 25 14
25 6z m539 -121 c0 -5 -13 15 -29 45 -16 30 -29 60 -29 65 0 6 13 -15 29 -45
16 -30 29 -59 29 -65z m-654 65 c-3 -5 -12 -10 -18 -10 -7 0 -6 4 3 10 19 12
23 12 15 0z m284 -195 c0 -5 -8 6 -19 25 -11 19 -19 40 -19 45 0 6 8 -6 19
-25 11 -19 19 -39 19 -45z m301 47 c0 -5 -11 -14 -25 -20 -39 -18 -44 -14 -10
7 36 23 35 23 35 13z m124 -28 c3 -8 2 -12 -4 -9 -6 3 -10 10 -10 16 0 14 7
11 14 -7z m-84 -69 c-25 -13 -49 -24 -55 -24 -5 0 10 11 35 24 25 13 50 24 55
24 6 0 -10 -11 -35 -24z m-170 -80 c-36 -19 -69 -34 -75 -34 -5 0 19 15 55 34
36 19 70 34 75 34 6 0 -19 -15 -55 -34z m-111 -49 c-2 -2 -18 -11 -36 -20 -23
-12 -34 -13 -39 -4 -4 6 -3 9 2 5 5 -3 20 1 34 9 23 12 49 19 39 10z"/>
<path d="M3725 8213 c118 -52 209 -135 251 -231 32 -70 47 -173 35 -242 -5
-30 -7 -57 -6 -59 2 -2 17 18 34 43 103 163 44 376 -130 471 -42 22 -67 28
-138 31 l-86 5 40 -18z"/>
<path d="M3678 8050 c-50 -27 -70 -57 -56 -83 10 -20 11 -20 25 6 28 54 110
74 137 35 25 -35 20 -58 -30 -141 -40 -68 -46 -83 -41 -118 3 -23 7 -43 10
-45 3 -4 215 91 224 100 2 2 1 10 -3 19 -5 13 -19 9 -91 -24 -47 -21 -90 -39
-95 -39 -17 0 1 50 34 99 49 70 61 114 44 155 -24 59 -87 73 -158 36z"/>
<path d="M5398 7352 c-115 -54 -208 -102 -208 -108 0 -12 184 -401 194 -411 5
-5 390 171 413 189 11 9 -5 45 -142 324 l-50 102 -207 -96z m237 -149 c36 -75
64 -138 62 -139 -2 -2 -64 -32 -139 -68 l-136 -64 -61 129 c-34 71 -62 134
-64 140 -1 7 247 135 270 139 2 0 32 -61 68 -137z"/>
<path d="M5460 7209 c-35 -17 -66 -31 -67 -33 -6 -6 59 -136 68 -136 5 0 38
13 74 29 l64 29 -31 71 c-18 39 -34 71 -37 70 -3 0 -35 -14 -71 -30z"/>
<path d="M2140 7025 c-443 -201 -820 -371 -837 -380 -30 -13 -32 -17 -21 -40
6 -14 14 -25 18 -25 8 0 1659 746 1666 753 7 6 -6 57 -15 56 -3 0 -368 -164
-811 -364z"/>
<path d="M2343 6757 c-513 -232 -933 -427 -933 -433 0 -5 6 -18 13 -28 11 -15
91 18 947 405 514 232 937 423 939 425 7 6 -18 54 -26 53 -5 0 -428 -190 -940
-422z"/>
<path d="M2583 6527 c-574 -259 -1043 -476 -1043 -482 0 -6 6 -19 13 -28 11
-16 107 26 1042 449 567 256 1040 470 1052 474 18 8 21 14 14 32 -4 13 -14 24
-22 25 -8 1 -483 -210 -1056 -470z"/>
<path d="M2885 6315 c-660 -299 -1204 -545 -1208 -547 -5 -2 -3 -16 4 -31 7
-15 17 -26 23 -23 6 2 540 244 1186 536 646 292 1190 538 1207 545 28 12 32
17 24 37 -4 13 -14 24 -22 25 -8 1 -554 -243 -1214 -542z"/>
<path d="M5448 6774 c-16 -8 -28 -16 -28 -18 0 -2 14 -34 31 -71 25 -56 33
-66 50 -61 10 3 27 9 37 12 13 4 22 -2 31 -22 13 -30 12 -31 -34 -59 -17 -10
-17 -13 -1 -43 9 -18 18 -32 20 -32 11 0 136 60 136 65 0 5 -59 126 -65 133
-2 2 -18 -3 -37 -11 l-35 -15 -31 69 c-17 38 -34 69 -39 69 -4 -1 -20 -8 -35
-16z"/>
<path d="M5763 6749 c-35 -16 -63 -33 -63 -39 0 -5 5 -21 12 -35 8 -19 17 -25
30 -21 10 3 27 9 37 12 15 4 23 -2 35 -25 16 -30 16 -30 -16 -47 -18 -9 -34
-18 -36 -19 -2 -2 4 -17 13 -35 9 -18 15 -33 13 -35 -2 -1 -47 -23 -100 -48
-54 -25 -98 -50 -98 -56 0 -19 23 -61 34 -61 6 0 39 13 72 29 l61 29 16 -34
c16 -32 18 -33 44 -22 45 19 46 23 14 86 -17 34 -31 65 -31 70 0 5 15 16 34
24 l34 17 27 -65 c15 -35 31 -67 36 -70 11 -6 209 86 209 97 0 20 -25 59 -37
59 -7 0 -40 -14 -73 -30 l-60 -30 -15 36 c-12 28 -19 35 -32 29 -45 -19 -59
-17 -72 11 -13 30 -12 31 34 59 15 9 14 16 -14 78 -17 37 -34 67 -38 66 -4 0
-36 -14 -70 -30z"/>
<path d="M5685 6283 c-17 -9 -31 -17 -33 -18 -5 -4 62 -135 69 -135 17 0 199
91 199 99 0 16 -23 61 -31 61 -4 0 -36 -13 -72 -29 l-65 -29 -12 29 c-16 39
-20 40 -55 22z"/>
<path d="M4802 6130 c92 -50 143 -137 136 -233 -3 -60 6 -64 28 -11 34 82 3
186 -69 229 -23 13 -62 27 -87 30 l-45 6 37 -21z"/>
<path d="M4774 6033 c-3 -16 -14 -54 -24 -85 -10 -32 -15 -60 -10 -63 5 -3 28
4 51 16 39 19 44 20 54 5 19 -25 36 -20 29 9 -4 15 -2 25 5 25 6 0 11 5 11 10
0 6 -8 10 -18 10 -12 0 -26 17 -42 50 -26 56 -47 64 -56 23z m43 -64 c10 -24
9 -28 -14 -38 -14 -7 -27 -10 -29 -9 -2 2 2 23 8 46 11 45 17 45 35 1z"/>
<path d="M3876 5461 c-253 -115 -465 -212 -473 -217 -7 -5 -10 -14 -5 -22 6
-9 120 38 443 184 239 108 453 204 476 215 31 13 41 23 37 34 -3 8 -9 15 -13
14 -3 0 -213 -94 -465 -208z"/>
<path d="M8618 5544 c-16 -8 -28 -19 -28 -24 0 -5 14 -33 31 -61 36 -62 35
-82 -12 -241 -61 -205 -139 -349 -259 -481 -81 -88 -222 -205 -310 -258 l-71
-42 -27 20 c-15 11 -46 30 -70 43 -49 28 -56 24 -66 -42 l-6 -39 290 -289
c160 -160 295 -290 302 -290 16 0 150 84 223 139 339 257 555 589 639 981 24
110 34 229 22 239 -6 5 -108 64 -226 131 -118 68 -254 147 -302 177 -47 29
-90 53 -95 53 -4 -1 -20 -8 -35 -16z"/>
<path d="M3998 5312 c-388 -174 -527 -241 -525 -252 2 -8 10 -14 18 -12 8 2
249 109 536 239 385 173 520 239 516 249 -3 8 -8 14 -12 14 -3 0 -243 -107
-533 -238z"/>
<path d="M4133 5182 c-326 -147 -593 -271 -593 -275 0 -4 6 -10 14 -13 8 -3
265 108 572 247 308 138 573 258 591 265 22 10 31 19 27 29 -4 8 -9 15 -13 15
-3 0 -273 -121 -598 -268z"/>
<path d="M4303 5062 c-502 -226 -682 -311 -680 -322 2 -8 10 -14 18 -12 12 3
1229 549 1331 597 23 11 34 23 31 31 -3 8 -8 14 -12 14 -3 0 -313 -139 -688
-308z"/>
<path d="M1163 2575 c-136 -30 -247 -117 -306 -243 -30 -63 -32 -73 -32 -182
0 -110 2 -119 32 -181 47 -95 119 -158 313 -274 181 -108 213 -132 241 -187
55 -107 -15 -248 -122 -248 -77 0 -154 68 -236 207 -14 24 -27 43 -29 43 -2 0
-58 -25 -124 -57 -137 -64 -132 -52 -73 -165 71 -137 212 -237 363 -258 168
-24 329 28 432 138 181 193 167 482 -32 654 -27 24 -127 89 -222 145 -200 117
-229 145 -235 225 -7 98 46 160 136 160 80 -1 134 -45 171 -139 7 -18 16 -33
21 -33 26 0 239 105 239 118 0 30 -65 134 -112 178 -106 99 -259 135 -425 99z"/>
<path d="M2850 2574 c-120 -32 -203 -111 -275 -259 -98 -203 -127 -486 -80
-790 27 -175 91 -331 166 -406 65 -65 136 -92 241 -92 77 0 94 3 145 29 67 34
112 89 142 171 12 32 25 67 30 78 6 14 16 -17 40 -119 31 -130 34 -137 54
-132 12 3 37 6 55 6 l32 0 0 370 0 370 -202 -2 -203 -3 -7 -75 c-4 -41 -9 -90
-12 -107 l-5 -33 76 0 76 0 -6 -68 c-7 -81 -39 -173 -76 -214 -22 -24 -38 -32
-77 -35 -127 -12 -186 111 -200 417 -10 235 20 472 74 580 34 68 67 93 122 92
91 -1 122 -54 155 -265 l6 -38 42 5 c23 3 86 8 139 12 l98 6 -6 56 c-16 155
-63 272 -139 347 -99 100 -258 138 -405 99z"/>
<path d="M4903 2575 c-136 -30 -247 -117 -306 -243 -30 -63 -32 -73 -32 -182
0 -110 2 -119 32 -181 47 -95 119 -158 313 -274 181 -108 213 -132 241 -187
55 -107 -15 -248 -122 -248 -77 0 -154 68 -236 207 -14 24 -27 43 -29 43 -2 0
-58 -25 -124 -57 -137 -64 -132 -52 -73 -165 71 -137 212 -237 363 -258 168
-24 329 28 432 138 181 193 167 482 -32 654 -27 24 -127 89 -222 145 -200 117
-229 145 -235 225 -7 98 46 160 136 160 80 -1 134 -45 171 -139 7 -18 16 -33
21 -33 26 0 239 105 239 118 0 30 -65 134 -112 178 -106 99 -259 135 -425 99z"/>
<path d="M8910 2575 c-134 -38 -236 -149 -302 -328 -45 -123 -62 -240 -62
-422 1 -232 28 -389 95 -552 43 -103 126 -189 214 -223 84 -31 225 -32 307 0
127 48 231 192 263 363 13 70 20 146 13 148 -2 0 -57 6 -124 13 l-121 12 -11
-76 c-17 -117 -40 -180 -78 -218 -32 -32 -38 -34 -85 -30 -81 8 -122 61 -153
196 -54 240 -39 660 29 809 27 59 60 85 109 85 87 0 116 -54 151 -283 l5 -37
108 5 c59 2 122 6 140 9 l34 5 -7 62 c-32 276 -187 460 -396 473 -48 2 -93 -1
-129 -11z"/>
<path d="M2068 2547 l-118 -9 0 -751 0 -750 48 6 c26 4 93 9 150 13 l102 7 0
748 0 749 -32 -2 c-18 0 -86 -5 -150 -11z"/>
<path d="M3640 1805 l0 -755 379 0 379 0 6 43 c3 23 8 75 12 115 l7 72 -242 0
-241 0 0 215 0 215 155 0 155 0 0 125 0 125 -155 0 -155 0 0 185 0 185 223 2
222 3 7 75 c4 41 9 92 12 113 l4 37 -384 0 -384 0 0 -755z"/>
<path d="M6588 2553 l-108 -4 0 -756 0 -756 48 6 c26 4 91 9 144 13 l98 7 2
326 3 326 57 3 56 3 72 -183 c40 -101 99 -253 132 -338 33 -85 64 -159 69
-164 4 -5 69 8 148 29 l140 37 -19 47 c-10 25 -33 80 -50 121 -17 41 -70 167
-116 280 l-85 205 28 20 c67 48 115 102 146 164 31 64 32 69 32 196 0 127 -1
132 -33 197 -48 98 -139 164 -278 203 -63 17 -283 26 -486 18z m432 -248 c68
-39 99 -152 70 -257 -22 -79 -117 -123 -250 -116 l-65 3 -3 185 c-1 101 0 191
3 198 9 23 200 13 245 -13z"/>
<path d="M7620 1805 l0 -755 379 0 379 0 6 43 c3 23 8 75 12 115 l7 72 -242 0
-241 0 0 215 0 215 155 0 155 0 0 125 0 125 -155 0 -155 0 0 185 0 185 223 2
222 3 7 75 c4 41 9 92 12 113 l4 37 -384 0 -384 0 0 -755z"/>
<path d="M5670 1640 l0 -120 280 0 280 0 0 120 0 120 -280 0 -280 0 0 -120z"/>
</g>
</svg>
